<svg width="419" height="419" viewBox="0 0 419 419" fill="none" xmlns="http://www.w3.org/2000/svg">
<path d="M35 418.5H1V1C239 8.5 418 217.5 418 418.5H385C385 217 207.5 47.5 30 35.5V66.5C209 91.5 353.5 240.5 353.5 418.5H322.5C322.5 239.5 156 108 30 97.5V130C183.5 155.5 289.5 284 289.5 418.5H258.5C258.5 284 136.5 175 30 161.5V190.5C138.5 215.5 228.5 318 228.5 418.5H195C195 314.5 99.5 242.5 30 226.5V256C136.8 294.4 163.5 380.333 163.5 418.5H131.5C131.5 347.3 63.8333 304.833 30 292.5V323.5C52.5 335 99.5 373.5 99.5 418.5H68.5C68.5 398.9 53.5 379.667 46 372.5L25.5 391.5C34.7 400.7 35.6667 413.333 35 418.5Z" stroke="black"/>
</svg>
