<?xml version="1.0" encoding="utf-8"?>
<!-- Generator: Adobe Illustrator 28.0.0, SVG Export Plug-In . SVG Version: 6.00 Build 0)  -->
<svg version="1.1" id="Layer_1" xmlns="http://www.w3.org/2000/svg" xmlns:xlink="http://www.w3.org/1999/xlink" x="0px" y="0px"
	 viewBox="0 0 776.86 776.86" style="enable-background:new 0 0 776.86 776.86;" xml:space="preserve">
<style type="text/css">
	.st0{fill:#F7F8F9;}
	.st1{fill:#1E1E21;}
	.st2{fill:none;stroke:#FFFFFF;stroke-miterlimit:10;}
	.st3{fill:none;stroke:#000000;stroke-miterlimit:10;}
	.st4{fill:none;}
	.st5{fill:#FF0000;}
	.st6{fill:none;stroke:#1E1E21;stroke-miterlimit:10;}
	.st7{opacity:0.5;}
	.st8{opacity:0.1;}
	.st9{fill-rule:evenodd;clip-rule:evenodd;fill:#1E1E21;}
	.st10{fill:none;stroke:#FF0000;stroke-miterlimit:10;}
</style>
<g>
	<g>
		<g>
			<path class="st1" d="M359.86,32.56c0-0.46,0-0.89,0-1.29c0-0.4,0.03-0.79,0.1-1.19s0.12-0.79,0.15-1.19s0.08-0.79,0.15-1.19
				c-1.65,2.78-3.82,4.96-6.5,6.55c-2.68,1.59-5.84,2.45-9.47,2.58V25.02c4.63-0.66,8.43-2.13,11.41-4.42
				c2.98-2.28,4.89-5.31,5.75-9.08h10.81v69.45h-12.4V32.56z M359.86,80.98V69.96h12.4v11.01H359.86z"/>
		</g>
		<g>
			<path class="st1" d="M379.5,80.98c0.13-4.89,1.09-9.08,2.88-12.55s4.03-6.43,6.75-8.88c2.71-2.45,6.51-5.42,11.41-8.93l4.07-2.88
				c4.3-3.04,7.51-5.84,9.62-8.38c2.12-2.55,3.17-5.41,3.17-8.58c0-2.18-0.45-4.05-1.34-5.61c-0.89-1.55-2.17-2.74-3.82-3.57
				c-1.65-0.83-3.61-1.24-5.85-1.24c-2.78,0-5.11,0.6-6.99,1.79s-3.31,2.91-4.27,5.16c-0.96,2.25-1.44,4.9-1.44,7.94v0.69h-13.29
				v-0.6c0-5.09,1.04-9.57,3.12-13.44s5.08-6.86,8.98-8.98c3.9-2.12,8.53-3.17,13.89-3.17c4.89,0,9.11,0.91,12.65,2.73
				c3.54,1.82,6.25,4.33,8.14,7.54c1.88,3.21,2.83,6.83,2.83,10.86c0,4.04-0.84,7.62-2.53,10.76c-1.69,3.14-3.85,5.92-6.5,8.33
				c-2.65,2.42-6.02,5.08-10.12,7.99l-4.66,3.27c-3.64,2.65-6.04,4.45-7.19,5.41c-1.16,0.96-1.94,1.87-2.33,2.73H430v11.61H379.5z"
				/>
		</g>
	</g>
	<g>
		<g>
			<path class="st1" d="M265.97,78.4c0-0.46,0-0.89,0-1.29c0-0.4,0.03-0.79,0.1-1.19s0.12-0.79,0.15-1.19s0.08-0.79,0.15-1.19
				c-1.65,2.78-3.82,4.96-6.5,6.55c-2.68,1.59-5.84,2.45-9.47,2.58V70.86c4.63-0.66,8.43-2.13,11.41-4.42
				c2.98-2.28,4.89-5.31,5.75-9.08h10.81v69.45h-12.4V78.4z M265.97,126.82v-11.01h12.4v11.01H265.97z"/>
		</g>
		<g>
			<path class="st1" d="M299.8,78.4c0-0.46,0-0.89,0-1.29c0-0.4,0.03-0.79,0.1-1.19c0.06-0.4,0.11-0.79,0.15-1.19
				c0.03-0.4,0.08-0.79,0.15-1.19c-1.65,2.78-3.82,4.96-6.5,6.55c-2.68,1.59-5.84,2.45-9.47,2.58V70.86
				c4.63-0.66,8.43-2.13,11.41-4.42c2.98-2.28,4.89-5.31,5.76-9.08h10.81v69.45h-12.4V78.4z M299.8,126.82v-11.01h12.4v11.01H299.8z
				"/>
		</g>
	</g>
	<g>
		<g>
			<path class="st1" d="M176.94,203.65c0-0.46,0-0.89,0-1.29c0-0.4,0.03-0.79,0.1-1.19c0.06-0.4,0.11-0.79,0.15-1.19
				c0.03-0.4,0.08-0.79,0.15-1.19c-1.65,2.78-3.82,4.96-6.5,6.55c-2.68,1.59-5.84,2.45-9.47,2.58v-11.81
				c4.63-0.66,8.43-2.13,11.41-4.42c2.98-2.28,4.89-5.31,5.76-9.08h10.81v69.45h-12.4V203.65z M176.94,252.06v-11.01h12.4v11.01
				H176.94z"/>
		</g>
		<g>
			<path class="st1" d="M224.56,253.85c-5.75,0-10.68-1.46-14.78-4.37s-7.23-7.11-9.38-12.6c-2.15-5.49-3.22-12.07-3.22-19.74
				c0-7.47,1.11-13.94,3.32-19.4c2.21-5.46,5.39-9.64,9.52-12.55c4.13-2.91,8.98-4.37,14.54-4.37c5.56,0,10.38,1.46,14.48,4.37
				c4.1,2.91,7.26,7.13,9.48,12.65c2.21,5.52,3.32,12.15,3.32,19.89c0,7.48-1.08,13.91-3.22,19.3c-2.15,5.39-5.28,9.54-9.38,12.45
				C235.14,252.39,230.25,253.85,224.56,253.85z M224.66,243.23c2.98,0,5.56-0.94,7.74-2.83c2.18-1.89,3.87-4.71,5.06-8.48
				c1.19-3.77,1.79-8.43,1.79-13.99c0-8.86-1.29-15.49-3.87-19.89c-2.58-4.4-6.15-6.6-10.71-6.6c-3.11,0-5.75,0.96-7.94,2.88
				c-2.18,1.92-3.87,4.86-5.06,8.83c-1.19,3.97-1.79,8.96-1.79,14.98c0,8.27,1.32,14.52,3.97,18.75
				C216.49,241.12,220.09,243.23,224.66,243.23z"/>
		</g>
	</g>
	<g>
		<g>
			<path class="st1" d="M178.38,424.94c-7.28,0-13.05-1.93-17.31-5.8c-4.27-3.87-6.46-9.11-6.6-15.73h12.6
				c0.13,3.44,1.19,6.19,3.18,8.23c1.98,2.05,4.73,3.08,8.23,3.08c5.16,0,8.99-2.17,11.51-6.5c2.51-4.33,3.64-9.74,3.37-16.22
				c0-0.13,0-0.25,0-0.35s0-0.21,0-0.35c0-0.46,0-0.89,0-1.29s0.03-0.76,0.1-1.09c-1.72,2.65-4.18,4.96-7.39,6.94
				c-3.21,1.98-6.89,2.98-11.06,2.98c-3.77,0-7.28-0.94-10.52-2.83c-3.24-1.89-5.82-4.56-7.74-8.04c-1.92-3.47-2.88-7.56-2.88-12.25
				c0-4.7,1.12-8.85,3.37-12.45c2.25-3.6,5.28-6.4,9.08-8.38s7.99-2.98,12.55-2.98c5.49,0,10.27,1.47,14.34,4.42
				c4.07,2.94,7.13,7.09,9.18,12.45c1.52,4.1,2.5,8.88,2.93,14.34c0.43,5.46,0.23,10.78-0.59,15.97c-0.83,5.19-2.23,9.57-4.22,13.15
				c-2.32,4.17-5.36,7.33-9.13,9.48C187.61,423.86,183.27,424.94,178.38,424.94z M178.88,388.13c2.31,0,4.4-0.51,6.25-1.54
				c1.85-1.02,3.31-2.53,4.37-4.51s1.59-4.33,1.59-7.04c0-2.58-0.5-4.81-1.49-6.7c-0.99-1.89-2.4-3.32-4.22-4.32
				s-3.95-1.49-6.4-1.49c-2.38,0-4.53,0.51-6.45,1.54c-1.92,1.03-3.42,2.48-4.51,4.37c-1.09,1.88-1.64,4.12-1.64,6.7
				c0,2.71,0.51,5.04,1.54,6.99c1.03,1.95,2.48,3.44,4.37,4.46C174.16,387.62,176.36,388.13,178.88,388.13z"/>
		</g>
	</g>
	<g>
		<g>
			<path class="st1" d="M207.4,596.03c-5.55,0-10.29-0.84-14.19-2.53c-3.9-1.69-6.86-4.02-8.88-6.99
				c-2.02-2.98-3.03-6.35-3.03-10.12c0-4.3,1.3-8.02,3.92-11.16c2.61-3.14,6.2-5.47,10.77-6.99c-3.97-1.26-7.11-3.14-9.43-5.66
				c-2.32-2.51-3.47-5.69-3.47-9.52c0-3.97,0.99-7.46,2.98-10.47c1.98-3.01,4.83-5.36,8.53-7.04c3.7-1.69,8.04-2.53,13-2.53
				c4.89,0,9.18,0.84,12.85,2.53c3.67,1.69,6.51,4,8.53,6.95c2.02,2.94,3.03,6.3,3.03,10.07c0,3.97-1.16,7.33-3.47,10.07
				c-2.32,2.75-5.49,4.61-9.52,5.61c4.56,1.39,8.18,3.59,10.86,6.6c2.68,3.01,4.02,6.6,4.02,10.76c0,4.04-1.08,7.59-3.22,10.67
				c-2.15,3.08-5.21,5.47-9.18,7.19S212.82,596.03,207.4,596.03z M207.59,585.41c2.58,0,4.93-0.48,7.04-1.44
				c2.12-0.96,3.77-2.28,4.96-3.97c1.19-1.69,1.79-3.59,1.79-5.7c0-3.11-1.31-5.72-3.92-7.84c-2.61-2.12-5.9-3.17-9.87-3.17
				c-2.58,0-4.93,0.46-7.04,1.39c-2.12,0.93-3.77,2.22-4.96,3.87c-1.19,1.65-1.79,3.51-1.79,5.56c0,3.24,1.31,5.94,3.92,8.09
				C200.33,584.34,203.63,585.41,207.59,585.41z M207.59,553.37c2.31,0,4.38-0.4,6.2-1.19c1.82-0.79,3.26-1.93,4.32-3.42
				c1.06-1.49,1.59-3.19,1.59-5.11c0-2.05-0.5-3.83-1.49-5.36c-0.99-1.52-2.41-2.68-4.27-3.47c-1.85-0.79-3.97-1.19-6.35-1.19
				c-2.45,0-4.58,0.4-6.4,1.19c-1.82,0.79-3.24,1.9-4.27,3.32c-1.03,1.42-1.54,3.09-1.54,5.01c0,2.05,0.51,3.84,1.54,5.36
				c1.03,1.52,2.46,2.71,4.32,3.57C203.1,552.94,205.21,553.37,207.59,553.37z"/>
		</g>
	</g>
	<g>
		<g>
			<path class="st1" d="M269.74,719.49c0.79-12.24,3.46-23.2,7.99-32.89c4.53-9.69,10.17-17.21,16.92-22.57
				c1.12-0.86,2.28-1.55,3.47-2.08h-39.49v-11.91h50.8v12.6c-7.08,6.22-12.78,13.96-17.11,23.22c-4.33,9.26-6.83,20.47-7.49,33.63
				H269.74z"/>
		</g>
	</g>
	<g>
		<g>
			<path class="st1" d="M389.82,767.12c-6.15,0-11.31-1.49-15.48-4.46c-4.17-2.98-7.34-7.31-9.53-13c-1.52-3.9-2.43-8.43-2.73-13.59
				c-0.3-5.16,0-10.27,0.89-15.33c0.89-5.06,2.3-9.38,4.22-12.95c2.45-4.43,5.67-7.82,9.67-10.17c4-2.35,8.75-3.52,14.24-3.52
				c4.63,0,8.65,0.86,12.05,2.58c3.41,1.72,6.05,4.1,7.94,7.14c1.88,3.04,2.99,6.58,3.32,10.62h-12.7
				c-0.33-3.11-1.44-5.51-3.32-7.19c-1.88-1.69-4.45-2.53-7.69-2.53c-4.96,0-8.73,1.85-11.31,5.56c-2.58,3.71-4.04,8.8-4.37,15.28
				c-0.13,2.12-0.3,3.61-0.5,4.46c1.85-2.84,4.35-5.26,7.49-7.24c3.14-1.98,6.73-2.98,10.77-2.98c4.17,0,7.9,0.94,11.21,2.83
				c3.31,1.88,5.92,4.53,7.84,7.94c1.92,3.41,2.88,7.33,2.88,11.76c0,4.7-1.08,8.95-3.22,12.75c-2.15,3.8-5.13,6.76-8.93,8.88
				C398.76,766.06,394.51,767.12,389.82,767.12z M389.42,756.5c2.58,0,4.83-0.53,6.75-1.59c1.92-1.06,3.41-2.58,4.46-4.56
				c1.06-1.98,1.59-4.33,1.59-7.04c0-3.9-1.14-7.01-3.42-9.33c-2.28-2.31-5.34-3.47-9.18-3.47c-2.65,0-4.96,0.51-6.94,1.54
				c-1.98,1.03-3.52,2.48-4.61,4.37c-1.09,1.88-1.64,4.12-1.64,6.7c0,2.71,0.53,5.08,1.59,7.09c1.06,2.02,2.58,3.57,4.56,4.66
				C384.56,755.95,386.84,756.5,389.42,756.5z"/>
		</g>
	</g>
	<g>
		<g>
			<path class="st1" d="M492.83,721.27c-5.16,0-9.66-0.94-13.49-2.83c-3.84-1.88-6.78-4.48-8.83-7.79
				c-2.05-3.31-3.11-7.01-3.17-11.11h12.6c0.13,3.17,1.32,5.82,3.57,7.94c2.25,2.12,5.22,3.17,8.93,3.17c2.58,0,4.89-0.56,6.94-1.69
				c2.05-1.12,3.67-2.76,4.86-4.91c1.19-2.15,1.79-4.65,1.79-7.49c0-3.77-1.13-6.96-3.37-9.57c-2.25-2.61-5.39-3.92-9.43-3.92
				c-2.91,0-5.44,0.65-7.59,1.93c-2.15,1.29-3.72,3.06-4.71,5.31h-12.6l5.46-40.28h40.97v11.91h-31.75l-2.18,14.98
				c-0.07,0.4-0.13,0.78-0.2,1.14c-0.07,0.36-0.13,0.71-0.2,1.04c-0.13,0.66-0.33,1.32-0.6,1.98c1.92-2.51,4.25-4.56,7-6.15
				c2.74-1.59,5.97-2.38,9.67-2.38c4.3,0,8.12,1.04,11.46,3.13c3.34,2.08,5.94,4.96,7.79,8.63c1.85,3.67,2.78,7.76,2.78,12.25
				c0,5.16-1.12,9.59-3.37,13.29c-2.25,3.7-5.32,6.53-9.23,8.48C502.03,720.3,497.66,721.27,492.83,721.27z"/>
		</g>
	</g>
	<g>
		<g>
			<path class="st1" d="M572.98,594.24v-16.87h-32.74v-10.71l29.17-41.87h16.07v41.97h12.7v10.62h-12.7v16.87H572.98z
				 M552.15,566.76h20.83V536.9c-0.26,0.46-0.5,0.89-0.69,1.29c-0.2,0.4-0.4,0.79-0.6,1.19l-1.59,2.28l-14.88,21.13
				c-0.33,0.46-0.66,0.91-0.99,1.34c-0.33,0.43-0.66,0.84-0.99,1.24c-0.2,0.27-0.38,0.51-0.55,0.74
				C552.53,566.35,552.35,566.56,552.15,566.76z"/>
		</g>
	</g>
	<g>
		<g>
			<path class="st1" d="M597.09,424.94c-5.42,0-10.09-0.96-13.99-2.88c-3.9-1.92-6.9-4.7-8.98-8.33c-2.08-3.64-3.12-7.97-3.12-13
				h12.7c0,2.91,0.56,5.39,1.69,7.44c1.12,2.05,2.7,3.59,4.71,4.61c2.02,1.03,4.32,1.54,6.89,1.54c2.71,0,5.09-0.45,7.14-1.34
				c2.05-0.89,3.64-2.17,4.76-3.82c1.12-1.65,1.69-3.64,1.69-5.95c0-2.05-0.54-3.87-1.64-5.46c-1.09-1.59-2.65-2.83-4.66-3.72
				c-2.02-0.89-4.35-1.34-6.99-1.34h-4.96v-10.71h5.06c2.25,0,4.25-0.35,6-1.04c1.75-0.69,3.16-1.77,4.22-3.22
				c1.06-1.45,1.59-3.27,1.59-5.46c0-2.91-1.03-5.26-3.07-7.04c-2.05-1.79-4.9-2.68-8.53-2.68c-3.77,0-6.81,1.04-9.13,3.13
				c-2.32,2.08-3.61,4.88-3.87,8.38h-13.1c0.2-4.43,1.42-8.32,3.67-11.66c2.25-3.34,5.32-5.92,9.23-7.74
				c3.9-1.82,8.4-2.73,13.49-2.73c4.63,0,8.75,0.83,12.35,2.48c3.6,1.65,6.41,3.97,8.43,6.94s3.03,6.45,3.03,10.42
				c0,3.77-1.19,6.98-3.57,9.62c-2.38,2.65-5.46,4.5-9.23,5.56c4.17,1.19,7.55,3.26,10.17,6.2c2.61,2.94,3.92,6.7,3.92,11.26
				c0,3.97-1.11,7.51-3.32,10.62c-2.22,3.11-5.28,5.54-9.18,7.29C606.58,424.06,602.12,424.94,597.09,424.94z"/>
		</g>
	</g>
	<g>
		<g>
			<path class="st1" d="M543.42,252.06c0.13-4.89,1.09-9.08,2.88-12.55c1.79-3.47,4.03-6.43,6.75-8.88
				c2.71-2.45,6.51-5.42,11.41-8.93l4.07-2.88c4.3-3.04,7.51-5.84,9.62-8.38c2.12-2.55,3.18-5.41,3.18-8.58
				c0-2.18-0.45-4.05-1.34-5.61c-0.89-1.55-2.17-2.74-3.82-3.57c-1.65-0.83-3.61-1.24-5.85-1.24c-2.78,0-5.11,0.6-6.99,1.79
				c-1.88,1.19-3.31,2.91-4.27,5.16c-0.96,2.25-1.44,4.9-1.44,7.94v0.69h-13.29v-0.6c0-5.09,1.04-9.57,3.12-13.44
				c2.08-3.87,5.07-6.86,8.98-8.98c3.9-2.12,8.53-3.17,13.89-3.17c4.89,0,9.11,0.91,12.65,2.73c3.54,1.82,6.25,4.33,8.13,7.54
				c1.88,3.21,2.83,6.83,2.83,10.86c0,4.04-0.84,7.62-2.53,10.76c-1.69,3.14-3.85,5.92-6.5,8.33c-2.65,2.42-6.02,5.08-10.12,7.99
				l-4.66,3.27c-3.64,2.65-6.04,4.45-7.19,5.41c-1.16,0.96-1.94,1.87-2.33,2.73h33.34v11.61H543.42z"/>
		</g>
	</g>
	<g>
		<g>
			<path class="st1" d="M491.69,78.4c0-0.46,0-0.89,0-1.29c0-0.4,0.03-0.79,0.1-1.19c0.06-0.4,0.11-0.79,0.15-1.19
				c0.03-0.4,0.08-0.79,0.15-1.19c-1.65,2.78-3.82,4.96-6.5,6.55c-2.68,1.59-5.84,2.45-9.47,2.58V70.86
				c4.63-0.66,8.43-2.13,11.41-4.42c2.98-2.28,4.89-5.31,5.76-9.08h10.81v69.45h-12.4V78.4z M491.69,126.82v-11.01h12.4v11.01
				H491.69z"/>
		</g>
	</g>
</g>
<g>
	<g>
		<path d="M378.02,157.92c0-4.12,1.8-6.56,4.9-6.56c2.36,0,3.9,1.56,4.12,3.43h-2.02c-0.16-1.04-0.76-1.8-2.11-1.8
			c-2.34,0-2.94,2.18-2.94,4.34v0.18l0.05,0.02c0.65-1.05,1.8-1.65,3.23-1.65c2.43,0,4.12,1.71,4.12,4.18
			c0,2.43-1.71,4.36-4.48,4.36C379.31,164.42,378.02,161.75,378.02,157.92z M385.39,160.17c0-1.65-0.96-2.63-2.42-2.63
			c-1.72,0-2.78,1.09-2.78,2.67c0,1.52,0.94,2.58,2.65,2.58C384.51,162.78,385.39,161.75,385.39,160.17z"/>
		<path d="M388.88,157.9c0-3.59,1.49-6.54,4.99-6.54c3.5,0,4.98,2.94,4.98,6.54c0,3.6-1.47,6.52-4.98,6.52
			C390.37,164.42,388.88,161.5,388.88,157.9z M396.8,157.9c0-2.58-0.67-4.85-2.92-4.85c-2.27,0-2.94,2.27-2.94,4.85
			s0.67,4.83,2.94,4.83C396.13,162.73,396.8,160.48,396.8,157.9z"/>
	</g>
	<g>
		<path d="M427.69,155.61c-0.54,0.51-1.51,0.6-2.63,0.6v-1.6c2.22-0.05,2.87-0.73,3.03-2.23h1.56v12.55h-1.96V155.61z"/>
	</g>
	<g>
		<path d="M457.55,167.34c0-2.36,1.43-4,3.83-5.48c2.12-1.29,3.2-1.82,3.2-3.49c0-1.04-0.42-2.14-2.12-2.14
			c-1.96,0-2.58,1.27-2.58,3h-2c0-2.67,1.45-4.69,4.63-4.69c2.27,0,4.1,1.36,4.1,3.76c0,2.43-1.98,3.69-3.78,4.79
			c-1.23,0.73-2.4,1.42-2.76,2.52v0.04h6.39v1.69H457.55z"/>
	</g>
	<g>
		<path d="M492.12,169.66h2c0,1.72,0.73,2.85,2.92,2.85c1.98,0,2.65-0.8,2.65-2.14c0-1.72-1.23-2.14-2.51-2.14H496v-1.62h1.11
			c1.25,0,2.14-0.56,2.14-1.92c0-0.98-0.6-1.85-2.14-1.85c-2.12,0-2.65,1.12-2.65,2.34h-2c0-2.32,1.58-4.03,4.67-4.03
			c2.23,0,4.16,1.24,4.16,3.45c0,1.34-0.69,2.18-1.89,2.69v0.04c1.65,0.53,2.32,1.62,2.32,3.09c0,2.43-1.8,3.79-4.56,3.79
			C493.93,174.2,492.12,172.53,492.12,169.66z"/>
	</g>
	<g>
		<path d="M535.17,180.83v-2.87h-5.97v-1.82l5.97-7.86h1.96v7.99h1.76v1.69h-1.76v2.87H535.17z M531.01,176.27h4.16v-5.47
			L531.01,176.27z"/>
	</g>
	<g>
		<path d="M566.37,188.08h2c0.13,1.14,0.78,2.23,2.6,2.23c1.6,0,2.65-0.98,2.65-2.85c0-1.76-0.96-2.56-2.52-2.56
			c-1.02,0-1.94,0.34-2.54,1.13h-2.02l1.34-6.83h7.14v1.69h-5.63l-0.69,3.47v0.04c0.65-0.67,1.58-1.09,2.92-1.09
			c2.38,0,4.03,1.76,4.03,4.16c0,2.78-2,4.54-4.58,4.54C568.08,192,566.45,190.19,566.37,188.08z"/>
	</g>
	<g>
		<path d="M599.03,199.98c0-4.12,1.8-6.56,4.9-6.56c2.36,0,3.9,1.56,4.12,3.43h-2.02c-0.16-1.04-0.76-1.8-2.11-1.8
			c-2.34,0-2.94,2.18-2.94,4.34v0.18l0.05,0.02c0.65-1.05,1.8-1.65,3.23-1.65c2.43,0,4.12,1.71,4.12,4.18
			c0,2.43-1.71,4.36-4.48,4.36C600.32,206.48,599.03,203.81,599.03,199.98z M606.4,202.23c0-1.65-0.96-2.63-2.42-2.63
			c-1.72,0-2.78,1.09-2.78,2.67c0,1.52,0.94,2.58,2.65,2.58C605.51,204.85,606.4,203.81,606.4,202.23z"/>
	</g>
	<g>
		<path d="M635.49,223.75c0-4.16,2.58-8.84,4.81-10.82v-0.04h-6.68v-1.69h8.82v1.51c-2.85,2.38-4.88,7.03-4.88,11.04H635.49z"/>
	</g>
	<g>
		<path d="M659.61,237.35c0-1.72,1.14-2.6,2.34-3.12v-0.04c-0.89-0.47-1.73-1.27-1.73-2.69c0-2.16,1.76-3.41,4.19-3.41
			c2.45,0,4.21,1.25,4.21,3.41c0,1.42-0.85,2.21-1.72,2.69v0.04c1.18,0.53,2.34,1.4,2.34,3.12c0,2.54-2.09,3.79-4.83,3.79
			C661.7,241.15,659.61,239.89,659.61,237.35z M667.2,237.24c0-1.4-1.03-2.23-2.78-2.23s-2.78,0.83-2.78,2.23
			c0,1.43,1.04,2.27,2.78,2.27S667.2,238.68,667.2,237.24z M666.67,231.58c0-1.25-0.84-1.89-2.25-1.89c-1.4,0-2.23,0.63-2.23,1.89
			c0,1.27,0.83,1.87,2.23,1.87C665.84,233.45,666.67,232.85,666.67,231.58z"/>
	</g>
	<g>
		<path d="M684.13,254.77h2.03c0.15,1.04,0.76,1.8,2.11,1.8c2.32,0,2.94-2.18,2.94-4.34v-0.18l-0.05-0.02
			c-0.65,1.05-1.82,1.65-3.23,1.65c-2.43,0-4.12-1.71-4.12-4.18c0-2.43,1.69-4.36,4.48-4.36c3.6,0,4.88,2.67,4.88,6.5
			c0,4.12-1.8,6.55-4.92,6.55C685.91,258.2,684.36,256.64,684.13,254.77z M690.99,249.36c0-1.53-0.94-2.58-2.67-2.58
			c-1.63,0-2.52,1.04-2.52,2.61c0,1.65,0.96,2.63,2.42,2.63C689.92,252.03,690.99,250.94,690.99,249.36z"/>
	</g>
	<g>
		<path d="M704.76,270.73c-0.54,0.51-1.51,0.6-2.63,0.6v-1.6c2.22-0.05,2.87-0.73,3.03-2.23h1.56v12.55h-1.96V270.73z"/>
		<path d="M708.87,273.78c0-3.59,1.49-6.54,4.99-6.54c3.5,0,4.98,2.94,4.98,6.54c0,3.6-1.47,6.52-4.98,6.52
			C710.36,280.3,708.87,277.37,708.87,273.78z M716.78,273.78c0-2.58-0.67-4.85-2.92-4.85c-2.27,0-2.94,2.27-2.94,4.85
			s0.67,4.83,2.94,4.83C716.11,278.61,716.78,276.36,716.78,273.78z"/>
	</g>
	<g>
		<path d="M724.57,292.82c-0.54,0.51-1.51,0.6-2.63,0.6v-1.6c2.22-0.05,2.87-0.73,3.03-2.23h1.56v12.55h-1.96V292.82z"/>
		<path d="M730.77,292.82c-0.54,0.51-1.51,0.6-2.63,0.6v-1.6c2.22-0.05,2.87-0.73,3.03-2.23h1.56v12.55h-1.96V292.82z"/>
	</g>
	<g>
		<path d="M736.6,313.03c-0.54,0.51-1.51,0.6-2.63,0.6v-1.6c2.22-0.05,2.87-0.73,3.03-2.23h1.56v12.55h-1.96V313.03z"/>
		<path d="M740.43,322.35c0-2.36,1.43-4,3.83-5.48c2.12-1.29,3.2-1.82,3.2-3.49c0-1.04-0.42-2.14-2.12-2.14
			c-1.96,0-2.58,1.27-2.58,3h-2c0-2.67,1.45-4.69,4.63-4.69c2.27,0,4.1,1.36,4.1,3.76c0,2.43-1.98,3.69-3.78,4.79
			c-1.23,0.73-2.4,1.42-2.76,2.52v0.04h6.39v1.69H740.43z"/>
	</g>
	<g>
		<path d="M744.05,336.02c-0.54,0.51-1.51,0.6-2.63,0.6v-1.6c2.22-0.05,2.87-0.73,3.03-2.23h1.56v12.55h-1.96V336.02z"/>
		<path d="M747.95,341.05h2c0,1.72,0.73,2.85,2.92,2.85c1.98,0,2.65-0.8,2.65-2.14c0-1.72-1.23-2.14-2.51-2.14h-1.18V338h1.11
			c1.25,0,2.14-0.56,2.14-1.92c0-0.98-0.6-1.85-2.14-1.85c-2.12,0-2.65,1.12-2.65,2.34h-2c0-2.32,1.58-4.03,4.67-4.03
			c2.23,0,4.16,1.24,4.16,3.45c0,1.34-0.69,2.18-1.89,2.69v0.04c1.65,0.53,2.32,1.62,2.32,3.09c0,2.43-1.8,3.79-4.56,3.79
			C749.77,345.59,747.95,343.92,747.95,341.05z"/>
	</g>
	<g>
		<path d="M750.76,361.29c-0.54,0.51-1.51,0.6-2.63,0.6v-1.6c2.22-0.05,2.87-0.73,3.03-2.23h1.56v12.55h-1.96V361.29z"/>
		<path d="M760.53,370.6v-2.87h-5.97v-1.82l5.97-7.86h1.96v7.99h1.76v1.69h-1.76v2.87H760.53z M756.37,366.05h4.16v-5.47
			L756.37,366.05z"/>
	</g>
	<g>
		<path d="M752.36,386.75c-0.54,0.51-1.51,0.6-2.63,0.6v-1.6c2.22-0.05,2.87-0.73,3.03-2.23h1.56v12.55h-1.96V386.75z"/>
		<path d="M756.3,392.4h2c0.13,1.14,0.78,2.23,2.6,2.23c1.6,0,2.65-0.98,2.65-2.85c0-1.76-0.96-2.56-2.52-2.56
			c-1.02,0-1.94,0.34-2.54,1.13h-2.02l1.34-6.83h7.14v1.69h-5.63l-0.69,3.47v0.04c0.65-0.67,1.58-1.09,2.92-1.09
			c2.38,0,4.03,1.76,4.03,4.16c0,2.78-2,4.54-4.58,4.54C758.01,396.32,756.38,394.51,756.3,392.4z"/>
	</g>
	<g>
		<path d="M340.66,161.26h2c0.13,1.14,0.78,2.23,2.6,2.23c1.6,0,2.65-0.98,2.65-2.85c0-1.76-0.96-2.56-2.52-2.56
			c-1.02,0-1.94,0.34-2.54,1.13h-2.02l1.34-6.83h7.14v1.69h-5.63l-0.69,3.47v0.04c0.65-0.67,1.58-1.09,2.92-1.09
			c2.38,0,4.03,1.76,4.03,4.16c0,2.78-2,4.54-4.58,4.54C342.37,165.18,340.73,163.36,340.66,161.26z"/>
		<path d="M351.65,161.75h2.03c0.15,1.04,0.76,1.8,2.11,1.8c2.32,0,2.94-2.18,2.94-4.34v-0.18l-0.05-0.02
			c-0.65,1.05-1.82,1.65-3.23,1.65c-2.43,0-4.12-1.71-4.12-4.18c0-2.43,1.69-4.36,4.49-4.36c3.6,0,4.88,2.67,4.88,6.5
			c0,4.12-1.8,6.55-4.92,6.55C353.43,165.18,351.88,163.62,351.65,161.75z M358.51,156.34c0-1.53-0.94-2.58-2.67-2.58
			c-1.63,0-2.52,1.04-2.52,2.61c0,1.65,0.96,2.63,2.42,2.63C357.44,159.01,358.51,157.92,358.51,156.34z"/>
	</g>
	<g>
		<path d="M306.32,163.67h2c0.13,1.14,0.78,2.23,2.6,2.23c1.6,0,2.65-0.98,2.65-2.85c0-1.76-0.96-2.56-2.52-2.56
			c-1.02,0-1.94,0.34-2.54,1.13h-2.02l1.34-6.83h7.14v1.69h-5.63l-0.69,3.47v0.04c0.65-0.67,1.58-1.09,2.92-1.09
			c2.38,0,4.03,1.76,4.03,4.16c0,2.78-2,4.54-4.58,4.54C308.03,167.59,306.39,165.78,306.32,163.67z"/>
		<path d="M316.94,163.8c0-1.72,1.14-2.6,2.34-3.12v-0.04c-0.89-0.47-1.73-1.27-1.73-2.69c0-2.16,1.76-3.41,4.19-3.41
			c2.45,0,4.21,1.25,4.21,3.41c0,1.42-0.85,2.21-1.72,2.69v0.04c1.18,0.53,2.34,1.4,2.34,3.12c0,2.54-2.09,3.79-4.83,3.79
			C319.03,167.59,316.94,166.34,316.94,163.8z M324.53,163.69c0-1.4-1.03-2.23-2.78-2.23s-2.78,0.83-2.78,2.23
			c0,1.43,1.04,2.27,2.78,2.27S324.53,165.12,324.53,163.69z M324.01,158.02c0-1.25-0.84-1.89-2.25-1.89c-1.4,0-2.23,0.63-2.23,1.89
			c0,1.27,0.83,1.87,2.23,1.87C323.17,159.89,324.01,159.29,324.01,158.02z"/>
	</g>
	<g>
		<path d="M272.33,170.27h2c0.13,1.14,0.78,2.23,2.6,2.23c1.6,0,2.65-0.98,2.65-2.85c0-1.76-0.96-2.56-2.52-2.56
			c-1.02,0-1.94,0.34-2.54,1.13h-2.02l1.34-6.83h7.14v1.69h-5.63l-0.69,3.47v0.04c0.65-0.67,1.58-1.09,2.92-1.09
			c2.38,0,4.03,1.76,4.03,4.16c0,2.78-2,4.54-4.58,4.54C274.04,174.2,272.41,172.38,272.33,170.27z"/>
		<path d="M284.32,173.94c0-4.16,2.58-8.84,4.81-10.82v-0.04h-6.68v-1.69h8.82v1.51c-2.85,2.38-4.88,7.03-4.88,11.04H284.32z"/>
	</g>
	<g>
		<path d="M234.52,177.16h2c0.13,1.14,0.78,2.23,2.6,2.23c1.6,0,2.65-0.98,2.65-2.85c0-1.76-0.96-2.56-2.52-2.56
			c-1.02,0-1.94,0.34-2.54,1.13h-2.02l1.34-6.83h7.14v1.69h-5.63l-0.69,3.47v0.04c0.65-0.67,1.58-1.09,2.92-1.09
			c2.38,0,4.03,1.76,4.03,4.16c0,2.78-2,4.54-4.58,4.54C236.23,181.08,234.59,179.27,234.52,177.16z"/>
		<path d="M245.25,174.58c0-4.12,1.8-6.56,4.9-6.56c2.36,0,3.9,1.56,4.12,3.43h-2.02c-0.16-1.04-0.76-1.8-2.11-1.8
			c-2.34,0-2.94,2.18-2.94,4.34v0.18l0.05,0.02c0.65-1.05,1.8-1.65,3.23-1.65c2.43,0,4.12,1.71,4.12,4.18
			c0,2.43-1.71,4.36-4.48,4.36C246.54,181.08,245.25,178.42,245.25,174.58z M252.63,176.83c0-1.65-0.96-2.63-2.42-2.63
			c-1.72,0-2.78,1.09-2.78,2.67c0,1.52,0.94,2.58,2.65,2.58C251.74,179.45,252.63,178.42,252.63,176.83z"/>
	</g>
	<g>
		<path d="M197.73,188.08h2c0.13,1.14,0.78,2.23,2.6,2.23c1.6,0,2.65-0.98,2.65-2.85c0-1.76-0.96-2.56-2.52-2.56
			c-1.02,0-1.94,0.34-2.54,1.13h-2.02l1.34-6.83h7.14v1.69h-5.63l-0.69,3.47v0.04c0.65-0.67,1.58-1.09,2.92-1.09
			c2.38,0,4.03,1.76,4.03,4.16c0,2.78-2,4.54-4.58,4.54C199.44,192,197.8,190.19,197.73,188.08z"/>
		<path d="M208.28,188.08h2c0.13,1.14,0.78,2.23,2.6,2.23c1.6,0,2.65-0.98,2.65-2.85c0-1.76-0.96-2.56-2.52-2.56
			c-1.02,0-1.94,0.34-2.54,1.13h-2.02l1.34-6.83h7.14v1.69h-5.63l-0.69,3.47v0.04c0.65-0.67,1.58-1.09,2.92-1.09
			c2.38,0,4.03,1.76,4.03,4.16c0,2.78-2,4.54-4.58,4.54C209.99,192,208.36,190.19,208.28,188.08z"/>
	</g>
	<g>
		<path d="M165.01,202.56h2c0.13,1.14,0.78,2.23,2.6,2.23c1.6,0,2.65-0.98,2.65-2.85c0-1.76-0.96-2.56-2.52-2.56
			c-1.02,0-1.94,0.34-2.54,1.13h-2.02l1.34-6.83h7.14v1.69h-5.63l-0.69,3.47v0.04c0.65-0.67,1.58-1.09,2.92-1.09
			c2.38,0,4.03,1.76,4.03,4.16c0,2.78-2,4.54-4.58,4.54C166.72,206.48,165.09,204.67,165.01,202.56z"/>
		<path d="M181.39,206.23v-2.87h-5.97v-1.82l5.97-7.86h1.96v7.99h1.76v1.69h-1.76v2.87H181.39z M177.24,201.67h4.16v-5.47
			L177.24,201.67z"/>
	</g>
	<g>
		<path d="M130.43,220.08h2c0.13,1.14,0.78,2.23,2.6,2.23c1.6,0,2.65-0.98,2.65-2.85c0-1.76-0.96-2.56-2.52-2.56
			c-1.02,0-1.94,0.34-2.54,1.13h-2.02l1.34-6.83h7.14v1.69h-5.63l-0.69,3.47v0.04c0.65-0.67,1.58-1.09,2.92-1.09
			c2.38,0,4.03,1.76,4.03,4.16c0,2.78-2,4.54-4.58,4.54C132.14,224,130.5,222.19,130.43,220.08z"/>
		<path d="M140.94,219.46h2c0,1.72,0.73,2.85,2.92,2.85c1.98,0,2.65-0.8,2.65-2.14c0-1.72-1.23-2.14-2.51-2.14h-1.18v-1.62h1.11
			c1.25,0,2.14-0.56,2.14-1.92c0-0.98-0.6-1.85-2.14-1.85c-2.12,0-2.65,1.12-2.65,2.34h-2c0-2.32,1.58-4.03,4.67-4.03
			c2.23,0,4.16,1.24,4.16,3.45c0,1.34-0.69,2.18-1.89,2.69v0.04c1.65,0.53,2.32,1.62,2.32,3.09c0,2.43-1.8,3.79-4.56,3.79
			C142.76,224,140.94,222.33,140.94,219.46z"/>
	</g>
	<g>
		<path d="M104.44,237.23h2c0.13,1.14,0.78,2.23,2.6,2.23c1.6,0,2.65-0.98,2.65-2.85c0-1.76-0.96-2.56-2.52-2.56
			c-1.02,0-1.94,0.34-2.54,1.13h-2.02l1.34-6.83h7.14v1.69h-5.63l-0.69,3.47v0.04c0.65-0.67,1.58-1.09,2.92-1.09
			c2.38,0,4.03,1.76,4.03,4.16c0,2.78-2,4.54-4.58,4.54C106.15,241.15,104.52,239.33,104.44,237.23z"/>
		<path d="M114.89,240.89c0-2.36,1.43-4,3.83-5.48c2.12-1.29,3.2-1.82,3.2-3.49c0-1.04-0.42-2.14-2.12-2.14
			c-1.96,0-2.58,1.27-2.58,3h-2c0-2.67,1.45-4.69,4.63-4.69c2.27,0,4.1,1.36,4.1,3.76c0,2.43-1.98,3.69-3.78,4.79
			c-1.23,0.73-2.4,1.42-2.76,2.52v0.04h6.39v1.69H114.89z"/>
	</g>
	<g>
		<path d="M82.46,254.28h2c0.13,1.14,0.78,2.23,2.6,2.23c1.6,0,2.65-0.98,2.65-2.85c0-1.76-0.96-2.56-2.52-2.56
			c-1.02,0-1.94,0.34-2.54,1.13h-2.02l1.34-6.83h7.14v1.69h-5.63l-0.69,3.47v0.04c0.65-0.67,1.58-1.09,2.92-1.09
			c2.38,0,4.03,1.76,4.03,4.16c0,2.78-2,4.54-4.58,4.54C84.16,258.2,82.53,256.39,82.46,254.28z"/>
		<path d="M95.17,248.63c-0.54,0.51-1.51,0.6-2.63,0.6v-1.6c2.22-0.05,2.87-0.73,3.03-2.23h1.56v12.55h-1.96V248.63z"/>
	</g>
	<g>
		<path d="M57.52,276.37h2c0.13,1.14,0.78,2.23,2.6,2.23c1.6,0,2.65-0.98,2.65-2.85c0-1.76-0.96-2.56-2.52-2.56
			c-1.02,0-1.94,0.34-2.54,1.13h-2.02l1.34-6.83h7.14v1.69h-5.63l-0.69,3.47v0.04c0.65-0.67,1.58-1.09,2.92-1.09
			c2.38,0,4.03,1.76,4.03,4.16c0,2.78-2,4.54-4.58,4.54C59.22,280.3,57.59,278.48,57.52,276.37z"/>
		<path d="M68.23,273.78c0-3.59,1.49-6.54,4.99-6.54c3.5,0,4.98,2.94,4.98,6.54c0,3.6-1.47,6.52-4.98,6.52
			C69.72,280.3,68.23,277.37,68.23,273.78z M76.15,273.78c0-2.58-0.67-4.85-2.92-4.85c-2.27,0-2.94,2.27-2.94,4.85
			s0.67,4.83,2.94,4.83C75.48,278.61,76.15,276.36,76.15,273.78z"/>
	</g>
	<g>
		<path d="M46.44,302.14v-2.87h-5.97v-1.82l5.97-7.86h1.96v7.99h1.76v1.69H48.4v2.87H46.44z M42.28,297.58h4.16v-5.47L42.28,297.58z
			"/>
		<path d="M51.74,298.96h2.03c0.15,1.04,0.76,1.8,2.11,1.8c2.32,0,2.94-2.18,2.94-4.34v-0.18l-0.05-0.02
			c-0.65,1.05-1.82,1.65-3.23,1.65c-2.43,0-4.12-1.71-4.12-4.18c0-2.43,1.69-4.36,4.48-4.36c3.6,0,4.88,2.67,4.88,6.5
			c0,4.12-1.8,6.55-4.92,6.55C53.52,302.39,51.98,300.83,51.74,298.96z M58.61,293.55c0-1.53-0.94-2.58-2.67-2.58
			c-1.63,0-2.52,1.04-2.52,2.61c0,1.65,0.96,2.63,2.42,2.63C57.54,296.22,58.61,295.13,58.61,293.55z"/>
	</g>
	<g>
		<path d="M32.28,322.35v-2.87h-5.97v-1.82l5.97-7.86h1.96v7.99H36v1.69h-1.76v2.87H32.28z M28.12,317.79h4.16v-5.47L28.12,317.79z"
			/>
		<path d="M37.24,318.81c0-1.72,1.14-2.6,2.34-3.12v-0.04c-0.89-0.47-1.73-1.27-1.73-2.69c0-2.16,1.76-3.41,4.19-3.41
			c2.45,0,4.21,1.25,4.21,3.41c0,1.42-0.85,2.21-1.72,2.69v0.04c1.18,0.53,2.34,1.4,2.34,3.12c0,2.54-2.09,3.79-4.83,3.79
			C39.33,322.6,37.24,321.35,37.24,318.81z M44.83,318.7c0-1.4-1.03-2.23-2.78-2.23s-2.78,0.83-2.78,2.23
			c0,1.43,1.04,2.27,2.78,2.27S44.83,320.13,44.83,318.7z M44.3,313.03c0-1.25-0.84-1.89-2.25-1.89c-1.4,0-2.23,0.63-2.23,1.89
			c0,1.27,0.83,1.87,2.23,1.87C43.47,314.91,44.3,314.31,44.3,313.03z"/>
	</g>
	<g>
		<path d="M25.51,345.33v-2.87h-5.97v-1.82l5.97-7.86h1.96v7.99h1.76v1.69h-1.76v2.87H25.51z M21.36,340.78h4.16v-5.47L21.36,340.78
			z"/>
		<path d="M31.49,345.33c0-4.16,2.58-8.84,4.81-10.82v-0.04h-6.68v-1.69h8.82v1.51c-2.85,2.38-4.88,7.03-4.88,11.04H31.49z"/>
	</g>
	<g>
		<path d="M18,370.6v-2.87h-5.97v-1.82l5.97-7.86h1.96v7.99h1.76v1.69h-1.76v2.87H18z M13.84,366.05H18v-5.47L13.84,366.05z"/>
		<path d="M23.07,364.36c0-4.12,1.8-6.56,4.9-6.56c2.36,0,3.9,1.56,4.12,3.43h-2.02c-0.16-1.04-0.76-1.8-2.11-1.8
			c-2.34,0-2.94,2.18-2.94,4.34v0.18l0.05,0.02c0.65-1.05,1.8-1.65,3.23-1.65c2.43,0,4.12,1.71,4.12,4.18
			c0,2.43-1.71,4.36-4.48,4.36C24.36,370.86,23.07,368.19,23.07,364.36z M30.44,366.61c0-1.65-0.96-2.63-2.42-2.63
			c-1.72,0-2.78,1.09-2.78,2.67c0,1.52,0.94,2.58,2.65,2.58C29.55,369.22,30.44,368.19,30.44,366.61z"/>
	</g>
	<g>
		<path d="M16.64,394.64v-2.87h-5.97v-1.82l5.97-7.86h1.96v7.99h1.76v1.69H18.6v2.87H16.64z M12.49,390.08h4.16v-5.47L12.49,390.08z
			"/>
		<path d="M21.53,390.97h2c0.13,1.14,0.78,2.23,2.6,2.23c1.6,0,2.65-0.98,2.65-2.85c0-1.76-0.96-2.56-2.52-2.56
			c-1.02,0-1.94,0.34-2.54,1.13h-2.02l1.34-6.83h7.14v1.69h-5.63l-0.69,3.47v0.04c0.65-0.67,1.58-1.09,2.92-1.09
			c2.38,0,4.03,1.76,4.03,4.16c0,2.78-2,4.54-4.58,4.54C23.24,394.9,21.6,393.08,21.53,390.97z"/>
	</g>
	<g>
		<path d="M377.78,621.72h2c0,1.72,0.73,2.85,2.92,2.85c1.98,0,2.65-0.8,2.65-2.14c0-1.72-1.23-2.14-2.51-2.14h-1.18v-1.62h1.11
			c1.25,0,2.14-0.56,2.14-1.92c0-0.98-0.6-1.85-2.14-1.85c-2.12,0-2.65,1.12-2.65,2.34h-2c0-2.32,1.58-4.03,4.67-4.03
			c2.23,0,4.16,1.24,4.16,3.45c0,1.34-0.69,2.18-1.89,2.69v0.04c1.65,0.53,2.32,1.62,2.32,3.09c0,2.43-1.8,3.79-4.56,3.79
			C379.59,626.26,377.78,624.59,377.78,621.72z"/>
		<path d="M388.91,619.74c0-3.59,1.49-6.54,4.99-6.54c3.5,0,4.98,2.94,4.98,6.54c0,3.6-1.47,6.52-4.98,6.52
			C390.4,626.26,388.91,623.34,388.91,619.74z M396.83,619.74c0-2.58-0.67-4.85-2.92-4.85c-2.27,0-2.94,2.27-2.94,4.85
			s0.67,4.83,2.94,4.83C396.15,624.57,396.83,622.32,396.83,619.74z"/>
	</g>
	<g>
		<path d="M417.81,625.25c0-2.36,1.43-4,3.83-5.48c2.12-1.29,3.2-1.82,3.2-3.49c0-1.04-0.42-2.14-2.12-2.14
			c-1.96,0-2.58,1.27-2.58,3h-2c0-2.67,1.45-4.69,4.63-4.69c2.27,0,4.1,1.36,4.1,3.76c0,2.43-1.98,3.69-3.78,4.79
			c-1.23,0.73-2.4,1.42-2.76,2.52v0.04h6.39v1.69H417.81z"/>
		<path d="M428.68,622.07h2.03c0.15,1.04,0.76,1.8,2.11,1.8c2.32,0,2.94-2.18,2.94-4.34v-0.18l-0.05-0.02
			c-0.65,1.05-1.82,1.65-3.23,1.65c-2.43,0-4.12-1.71-4.12-4.18c0-2.43,1.69-4.36,4.48-4.36c3.6,0,4.88,2.67,4.88,6.5
			c0,4.12-1.8,6.55-4.92,6.55C430.46,625.5,428.92,623.94,428.68,622.07z M435.55,616.66c0-1.53-0.94-2.58-2.67-2.58
			c-1.63,0-2.52,1.04-2.52,2.61c0,1.65,0.96,2.63,2.42,2.63C434.48,619.33,435.55,618.24,435.55,616.66z"/>
	</g>
	<g>
		<path d="M452.04,622.83c0-2.36,1.43-4,3.83-5.48c2.12-1.29,3.2-1.82,3.2-3.49c0-1.04-0.42-2.14-2.12-2.14
			c-1.96,0-2.58,1.27-2.58,3h-2c0-2.67,1.45-4.69,4.63-4.69c2.27,0,4.1,1.36,4.1,3.76c0,2.43-1.98,3.69-3.78,4.79
			c-1.23,0.73-2.4,1.42-2.76,2.52v0.04h6.39v1.69H452.04z"/>
		<path d="M462.55,619.29c0-1.72,1.14-2.6,2.34-3.12v-0.04c-0.89-0.47-1.72-1.27-1.72-2.69c0-2.16,1.76-3.41,4.19-3.41
			c2.45,0,4.21,1.25,4.21,3.41c0,1.42-0.85,2.21-1.73,2.69v0.04c1.18,0.53,2.34,1.4,2.34,3.12c0,2.54-2.09,3.79-4.83,3.79
			C464.64,623.09,462.55,621.83,462.55,619.29z M470.14,619.18c0-1.4-1.04-2.23-2.78-2.23s-2.78,0.83-2.78,2.23
			c0,1.43,1.04,2.27,2.78,2.27S470.14,620.62,470.14,619.18z M469.61,613.52c0-1.25-0.84-1.89-2.25-1.89c-1.4,0-2.23,0.63-2.23,1.89
			c0,1.27,0.83,1.87,2.23,1.87C468.78,615.39,469.61,614.79,469.61,613.52z"/>
	</g>
	<g>
		<path d="M487.64,616.23c0-2.36,1.43-4,3.83-5.48c2.12-1.29,3.2-1.82,3.2-3.49c0-1.04-0.42-2.14-2.12-2.14
			c-1.96,0-2.58,1.27-2.58,3h-2c0-2.67,1.45-4.69,4.63-4.69c2.27,0,4.1,1.36,4.1,3.76c0,2.43-1.98,3.69-3.78,4.79
			c-1.23,0.73-2.4,1.42-2.76,2.52v0.04h6.39v1.69H487.64z"/>
		<path d="M499.52,616.23c0-4.16,2.58-8.84,4.81-10.82v-0.04h-6.68v-1.69h8.82v1.51c-2.85,2.38-4.88,7.03-4.88,11.04H499.52z"/>
	</g>
	<g>
		<path d="M523.98,609.34c0-2.36,1.43-4,3.83-5.48c2.12-1.29,3.2-1.82,3.2-3.49c0-1.04-0.42-2.14-2.12-2.14
			c-1.96,0-2.58,1.27-2.58,3h-2c0-2.67,1.45-4.69,4.63-4.69c2.27,0,4.1,1.36,4.1,3.76c0,2.43-1.98,3.69-3.78,4.79
			c-1.23,0.73-2.4,1.42-2.76,2.52v0.04h6.39v1.69H523.98z"/>
		<path d="M534.61,603.09c0-4.12,1.8-6.56,4.9-6.56c2.36,0,3.9,1.56,4.12,3.43h-2.02c-0.16-1.04-0.76-1.8-2.11-1.8
			c-2.34,0-2.94,2.18-2.94,4.34v0.18l0.05,0.02c0.65-1.05,1.8-1.65,3.23-1.65c2.43,0,4.12,1.71,4.12,4.18
			c0,2.43-1.71,4.36-4.48,4.36C535.9,609.59,534.61,606.93,534.61,603.09z M541.98,605.35c0-1.65-0.96-2.63-2.42-2.63
			c-1.72,0-2.78,1.09-2.78,2.67c0,1.52,0.94,2.58,2.65,2.58C541.09,607.96,541.98,606.93,541.98,605.35z"/>
	</g>
	<g>
		<path d="M561.1,598.42c0-2.36,1.43-4,3.83-5.48c2.12-1.29,3.2-1.82,3.2-3.49c0-1.04-0.42-2.14-2.12-2.14c-1.96,0-2.58,1.27-2.58,3
			h-2c0-2.67,1.45-4.69,4.63-4.69c2.27,0,4.1,1.36,4.1,3.76c0,2.43-1.98,3.69-3.78,4.79c-1.23,0.73-2.4,1.42-2.76,2.52v0.04h6.39
			v1.69H561.1z"/>
		<path d="M571.54,594.75h2c0.13,1.14,0.78,2.23,2.6,2.23c1.6,0,2.65-0.98,2.65-2.85c0-1.76-0.96-2.56-2.52-2.56
			c-1.02,0-1.94,0.34-2.54,1.13h-2.02l1.34-6.83h7.14v1.69h-5.63l-0.69,3.47v0.04c0.65-0.67,1.58-1.09,2.92-1.09
			c2.38,0,4.03,1.76,4.03,4.16c0,2.78-2,4.54-4.58,4.54C573.25,598.67,571.61,596.86,571.54,594.75z"/>
	</g>
	<g>
		<path d="M593.78,583.94c0-2.36,1.43-4,3.83-5.48c2.12-1.29,3.2-1.82,3.2-3.49c0-1.04-0.42-2.14-2.12-2.14
			c-1.96,0-2.58,1.27-2.58,3h-2c0-2.67,1.45-4.69,4.63-4.69c2.27,0,4.1,1.36,4.1,3.76c0,2.43-1.98,3.69-3.78,4.79
			c-1.23,0.73-2.4,1.42-2.76,2.52v0.04h6.39v1.69H593.78z"/>
		<path d="M609.8,583.94v-2.87h-5.97v-1.82l5.97-7.86h1.96v7.99h1.76v1.69h-1.76v2.87H609.8z M605.64,579.39h4.16v-5.47
			L605.64,579.39z"/>
	</g>
	<g>
		<path d="M628.02,566.42c0-2.36,1.43-4,3.83-5.48c2.12-1.29,3.2-1.82,3.2-3.49c0-1.04-0.42-2.14-2.12-2.14
			c-1.96,0-2.58,1.27-2.58,3h-2c0-2.67,1.45-4.69,4.63-4.69c2.27,0,4.1,1.36,4.1,3.76c0,2.43-1.98,3.69-3.78,4.79
			c-1.23,0.73-2.4,1.42-2.76,2.52v0.04h6.39v1.69H628.02z"/>
		<path d="M638.42,562.14h2c0,1.72,0.73,2.85,2.92,2.85c1.98,0,2.65-0.8,2.65-2.14c0-1.72-1.23-2.14-2.51-2.14h-1.18v-1.62h1.11
			c1.25,0,2.14-0.56,2.14-1.92c0-0.98-0.6-1.85-2.14-1.85c-2.12,0-2.65,1.12-2.65,2.34h-2c0-2.32,1.58-4.03,4.67-4.03
			c2.23,0,4.16,1.24,4.16,3.45c0,1.34-0.69,2.18-1.89,2.69v0.04c1.65,0.53,2.32,1.62,2.32,3.09c0,2.43-1.8,3.79-4.56,3.79
			C640.24,566.67,638.42,565,638.42,562.14z"/>
	</g>
	<g>
		<path d="M654.6,549.28c0-2.36,1.43-4,3.83-5.48c2.12-1.29,3.2-1.82,3.2-3.49c0-1.04-0.42-2.14-2.12-2.14c-1.96,0-2.58,1.27-2.58,3
			h-2c0-2.67,1.45-4.69,4.63-4.69c2.27,0,4.1,1.36,4.1,3.76c0,2.43-1.98,3.69-3.78,4.79c-1.23,0.73-2.4,1.42-2.76,2.52v0.04h6.39
			v1.69H654.6z"/>
		<path d="M664.94,549.28c0-2.36,1.43-4,3.83-5.48c2.12-1.29,3.2-1.82,3.2-3.49c0-1.04-0.42-2.14-2.12-2.14
			c-1.96,0-2.58,1.27-2.58,3h-2c0-2.67,1.45-4.69,4.63-4.69c2.27,0,4.1,1.36,4.1,3.76c0,2.43-1.98,3.69-3.78,4.79
			c-1.23,0.73-2.4,1.42-2.76,2.52v0.04h6.39v1.69H664.94z"/>
	</g>
	<g>
		<path d="M680.78,532.22c0-2.36,1.43-4,3.83-5.48c2.12-1.29,3.2-1.82,3.2-3.49c0-1.04-0.42-2.14-2.12-2.14
			c-1.96,0-2.58,1.27-2.58,3h-2c0-2.67,1.45-4.69,4.63-4.69c2.27,0,4.1,1.36,4.1,3.76c0,2.43-1.98,3.69-3.78,4.79
			c-1.23,0.73-2.4,1.42-2.76,2.52v0.04h6.39v1.69H680.78z"/>
		<path d="M693.47,522.91c-0.54,0.51-1.51,0.6-2.63,0.6v-1.6c2.22-0.05,2.87-0.73,3.03-2.23h1.56v12.55h-1.96V522.91z"/>
	</g>
	<g>
		<path d="M700.33,510.13c0-2.36,1.43-4,3.83-5.48c2.12-1.29,3.2-1.82,3.2-3.49c0-1.04-0.42-2.14-2.12-2.14
			c-1.96,0-2.58,1.27-2.58,3h-2c0-2.67,1.45-4.69,4.63-4.69c2.27,0,4.1,1.36,4.1,3.76c0,2.43-1.98,3.69-3.78,4.79
			c-1.23,0.73-2.4,1.42-2.76,2.52v0.04h6.39v1.69H700.33z"/>
		<path d="M710.94,503.86c0-3.59,1.49-6.54,4.99-6.54c3.5,0,4.98,2.94,4.98,6.54c0,3.6-1.47,6.52-4.98,6.52
			C712.43,510.38,710.94,507.46,710.94,503.86z M718.85,503.86c0-2.58-0.67-4.85-2.92-4.85c-2.27,0-2.94,2.27-2.94,4.85
			s0.67,4.83,2.94,4.83C718.18,508.69,718.85,506.44,718.85,503.86z"/>
	</g>
	<g>
		<path d="M722.21,478.72c-0.54,0.51-1.51,0.6-2.63,0.6v-1.6c2.22-0.05,2.87-0.73,3.03-2.23h1.56v12.55h-1.96V478.72z"/>
		<path d="M726.59,484.86h2.03c0.15,1.04,0.76,1.8,2.11,1.8c2.32,0,2.94-2.18,2.94-4.34v-0.18l-0.05-0.02
			c-0.65,1.05-1.82,1.65-3.23,1.65c-2.43,0-4.12-1.71-4.12-4.18c0-2.43,1.69-4.36,4.48-4.36c3.6,0,4.88,2.67,4.88,6.5
			c0,4.12-1.8,6.55-4.92,6.55C728.37,488.29,726.83,486.73,726.59,484.86z M733.45,479.45c0-1.53-0.94-2.58-2.67-2.58
			c-1.63,0-2.52,1.04-2.52,2.61c0,1.65,0.96,2.63,2.42,2.63C732.38,482.11,733.45,481.03,733.45,479.45z"/>
	</g>
	<g>
		<path d="M736.26,458.51c-0.54,0.51-1.51,0.6-2.63,0.6v-1.6c2.22-0.05,2.87-0.73,3.03-2.23h1.56v12.55h-1.96V458.51z"/>
		<path d="M740.27,464.28c0-1.72,1.14-2.6,2.34-3.12v-0.04c-0.89-0.47-1.73-1.27-1.73-2.69c0-2.16,1.76-3.41,4.19-3.41
			c2.45,0,4.21,1.25,4.21,3.41c0,1.42-0.85,2.21-1.72,2.69v0.04c1.18,0.53,2.34,1.4,2.34,3.12c0,2.54-2.09,3.79-4.83,3.79
			C742.36,468.08,740.27,466.82,740.27,464.28z M747.86,464.17c0-1.4-1.03-2.23-2.78-2.23s-2.78,0.83-2.78,2.23
			c0,1.43,1.04,2.27,2.78,2.27S747.86,465.61,747.86,464.17z M747.33,458.51c0-1.25-0.84-1.89-2.25-1.89c-1.4,0-2.23,0.63-2.23,1.89
			c0,1.27,0.83,1.87,2.23,1.87C746.5,460.38,747.33,459.78,747.33,458.51z"/>
	</g>
	<g>
		<path d="M744.81,435.52c-0.54,0.51-1.51,0.6-2.63,0.6v-1.6c2.22-0.05,2.87-0.73,3.03-2.23h1.56v12.55h-1.96V435.52z"/>
		<path d="M750.18,444.84c0-4.16,2.58-8.84,4.81-10.82v-0.04h-6.68v-1.69h8.82v1.51c-2.85,2.38-4.88,7.03-4.88,11.04H750.18z"/>
	</g>
	<g>
		<path d="M750.68,410.25c-0.54,0.51-1.51,0.6-2.63,0.6v-1.6c2.22-0.05,2.87-0.73,3.03-2.23h1.56v12.55h-1.96V410.25z"/>
		<path d="M754.8,413.32c0-4.12,1.8-6.56,4.9-6.56c2.36,0,3.9,1.56,4.12,3.43h-2.02c-0.16-1.04-0.76-1.8-2.11-1.8
			c-2.34,0-2.94,2.18-2.94,4.34v0.18l0.05,0.02c0.65-1.05,1.8-1.65,3.23-1.65c2.43,0,4.12,1.71,4.12,4.18
			c0,2.43-1.71,4.36-4.48,4.36C756.09,419.82,754.8,417.15,754.8,413.32z M762.17,415.57c0-1.65-0.96-2.63-2.42-2.63
			c-1.72,0-2.78,1.09-2.78,2.67c0,1.52,0.94,2.58,2.65,2.58C761.28,418.19,762.17,417.15,762.17,415.57z"/>
	</g>
	<g>
		<path d="M342.79,620.96h2c0,1.72,0.73,2.85,2.92,2.85c1.98,0,2.65-0.8,2.65-2.14c0-1.72-1.23-2.14-2.51-2.14h-1.18v-1.62h1.11
			c1.25,0,2.14-0.56,2.14-1.92c0-0.98-0.6-1.85-2.14-1.85c-2.12,0-2.65,1.12-2.65,2.34h-2c0-2.32,1.58-4.03,4.67-4.03
			c2.23,0,4.16,1.24,4.16,3.45c0,1.34-0.69,2.18-1.89,2.69v0.04c1.65,0.53,2.32,1.62,2.32,3.09c0,2.43-1.8,3.79-4.56,3.79
			C344.61,625.5,342.79,623.83,342.79,620.96z"/>
		<path d="M356.01,615.93c-0.54,0.51-1.51,0.6-2.63,0.6v-1.6c2.22-0.05,2.87-0.73,3.03-2.23h1.56v12.55h-1.96V615.93z"/>
	</g>
	<g>
		<path d="M306.44,618.55h2c0,1.72,0.73,2.85,2.92,2.85c1.98,0,2.65-0.8,2.65-2.14c0-1.72-1.23-2.14-2.51-2.14h-1.18v-1.62h1.11
			c1.25,0,2.14-0.56,2.14-1.92c0-0.98-0.6-1.85-2.14-1.85c-2.12,0-2.65,1.12-2.65,2.34h-2c0-2.32,1.58-4.03,4.67-4.03
			c2.23,0,4.16,1.24,4.16,3.45c0,1.34-0.69,2.18-1.89,2.69v0.04c1.65,0.53,2.32,1.62,2.32,3.09c0,2.43-1.8,3.79-4.56,3.79
			C308.25,623.09,306.44,621.42,306.44,618.55z"/>
		<path d="M317.3,622.83c0-2.36,1.43-4,3.83-5.48c2.12-1.29,3.2-1.82,3.2-3.49c0-1.04-0.42-2.14-2.12-2.14c-1.96,0-2.58,1.27-2.58,3
			h-2c0-2.67,1.45-4.69,4.63-4.69c2.27,0,4.1,1.36,4.1,3.76c0,2.43-1.98,3.69-3.78,4.79c-1.23,0.73-2.4,1.42-2.76,2.52v0.04h6.39
			v1.69H317.3z"/>
	</g>
	<g>
		<path d="M271.35,611.94h2c0,1.72,0.73,2.85,2.92,2.85c1.98,0,2.65-0.8,2.65-2.14c0-1.72-1.23-2.14-2.51-2.14h-1.18v-1.62h1.11
			c1.25,0,2.14-0.56,2.14-1.92c0-0.98-0.6-1.85-2.14-1.85c-2.12,0-2.65,1.12-2.65,2.34h-2c0-2.32,1.58-4.03,4.67-4.03
			c2.23,0,4.16,1.24,4.16,3.45c0,1.34-0.69,2.18-1.89,2.69v0.04c1.65,0.53,2.32,1.62,2.32,3.09c0,2.43-1.8,3.79-4.56,3.79
			C273.16,616.48,271.35,614.81,271.35,611.94z"/>
		<path d="M282.28,611.94h2c0,1.72,0.73,2.85,2.92,2.85c1.98,0,2.65-0.8,2.65-2.14c0-1.72-1.23-2.14-2.51-2.14h-1.18v-1.62h1.11
			c1.25,0,2.14-0.56,2.14-1.92c0-0.98-0.6-1.85-2.14-1.85c-2.12,0-2.65,1.12-2.65,2.34h-2c0-2.32,1.58-4.03,4.67-4.03
			c2.23,0,4.16,1.24,4.16,3.45c0,1.34-0.69,2.18-1.89,2.69v0.04c1.65,0.53,2.32,1.62,2.32,3.09c0,2.43-1.8,3.79-4.56,3.79
			C284.09,616.48,282.28,614.81,282.28,611.94z"/>
	</g>
	<g>
		<path d="M234.38,605.06h2c0,1.72,0.73,2.85,2.92,2.85c1.98,0,2.65-0.8,2.65-2.14c0-1.72-1.23-2.14-2.51-2.14h-1.18V602h1.11
			c1.25,0,2.14-0.56,2.14-1.92c0-0.98-0.6-1.85-2.14-1.85c-2.12,0-2.65,1.12-2.65,2.34h-2c0-2.32,1.58-4.03,4.67-4.03
			c2.23,0,4.16,1.24,4.16,3.45c0,1.34-0.69,2.18-1.89,2.69v0.04c1.65,0.53,2.32,1.62,2.32,3.09c0,2.43-1.8,3.79-4.56,3.79
			C236.19,609.59,234.38,607.92,234.38,605.06z"/>
		<path d="M251.17,609.34v-2.87h-5.97v-1.82l5.97-7.86h1.96v7.99h1.76v1.69h-1.76v2.87H251.17z M247.01,604.78h4.16v-5.47
			L247.01,604.78z"/>
	</g>
	<g>
		<path d="M197.51,594.14h2c0,1.72,0.73,2.85,2.92,2.85c1.98,0,2.65-0.8,2.65-2.14c0-1.72-1.23-2.14-2.51-2.14h-1.18v-1.62h1.11
			c1.25,0,2.14-0.56,2.14-1.92c0-0.98-0.6-1.85-2.14-1.85c-2.12,0-2.65,1.12-2.65,2.34h-2c0-2.32,1.58-4.03,4.67-4.03
			c2.23,0,4.16,1.24,4.16,3.45c0,1.34-0.69,2.18-1.89,2.69v0.04c1.65,0.53,2.32,1.62,2.32,3.09c0,2.43-1.8,3.79-4.56,3.79
			C199.32,598.67,197.51,597,197.51,594.14z"/>
		<path d="M208.47,594.75h2c0.13,1.14,0.78,2.23,2.6,2.23c1.6,0,2.65-0.98,2.65-2.85c0-1.76-0.96-2.56-2.52-2.56
			c-1.02,0-1.94,0.34-2.54,1.13h-2.02l1.34-6.83h7.14v1.69h-5.63l-0.69,3.47v0.04c0.65-0.67,1.58-1.09,2.92-1.09
			c2.38,0,4.03,1.76,4.03,4.16c0,2.78-2,4.54-4.58,4.54C210.18,598.67,208.55,596.86,208.47,594.75z"/>
	</g>
	<g>
		<path d="M164.7,579.66h2c0,1.72,0.73,2.85,2.92,2.85c1.98,0,2.65-0.8,2.65-2.14c0-1.72-1.23-2.14-2.51-2.14h-1.18v-1.62h1.11
			c1.25,0,2.14-0.56,2.14-1.92c0-0.98-0.6-1.85-2.14-1.85c-2.12,0-2.65,1.12-2.65,2.34h-2c0-2.32,1.58-4.03,4.67-4.03
			c2.23,0,4.16,1.24,4.16,3.45c0,1.34-0.69,2.18-1.89,2.69v0.04c1.65,0.53,2.32,1.62,2.32,3.09c0,2.43-1.8,3.79-4.56,3.79
			C166.52,584.2,164.7,582.53,164.7,579.66z"/>
		<path d="M175.86,577.7c0-4.12,1.8-6.56,4.9-6.56c2.36,0,3.9,1.56,4.12,3.43h-2.02c-0.16-1.04-0.76-1.8-2.11-1.8
			c-2.34,0-2.94,2.18-2.94,4.34v0.18l0.05,0.02c0.65-1.05,1.8-1.65,3.23-1.65c2.43,0,4.12,1.71,4.12,4.18
			c0,2.43-1.71,4.36-4.48,4.36C177.14,584.2,175.86,581.53,175.86,577.7z M183.23,579.95c0-1.65-0.96-2.63-2.42-2.63
			c-1.72,0-2.78,1.09-2.78,2.67c0,1.52,0.94,2.58,2.65,2.58C182.34,582.56,183.23,581.53,183.23,579.95z"/>
	</g>
	<g>
		<path d="M131.01,562.14h2c0,1.72,0.73,2.85,2.92,2.85c1.98,0,2.65-0.8,2.65-2.14c0-1.72-1.23-2.14-2.51-2.14h-1.18v-1.62H136
			c1.25,0,2.14-0.56,2.14-1.92c0-0.98-0.6-1.85-2.14-1.85c-2.12,0-2.65,1.12-2.65,2.34h-2c0-2.32,1.58-4.03,4.67-4.03
			c2.23,0,4.16,1.24,4.16,3.45c0,1.34-0.69,2.18-1.89,2.69v0.04c1.65,0.53,2.32,1.62,2.32,3.09c0,2.43-1.8,3.79-4.56,3.79
			C132.83,566.67,131.01,565,131.01,562.14z"/>
		<path d="M143.32,566.42c0-4.16,2.58-8.84,4.81-10.82v-0.04h-6.68v-1.69h8.82v1.51c-2.85,2.38-4.88,7.03-4.88,11.04H143.32z"/>
	</g>
	<g>
		<path d="M103.87,544.99h2c0,1.72,0.73,2.85,2.92,2.85c1.98,0,2.65-0.8,2.65-2.14c0-1.72-1.23-2.14-2.51-2.14h-1.18v-1.62h1.11
			c1.25,0,2.14-0.56,2.14-1.92c0-0.98-0.6-1.85-2.14-1.85c-2.12,0-2.65,1.12-2.65,2.34h-2c0-2.32,1.58-4.03,4.67-4.03
			c2.23,0,4.16,1.24,4.16,3.45c0,1.34-0.69,2.18-1.89,2.69v0.04c1.65,0.53,2.32,1.62,2.32,3.09c0,2.43-1.8,3.79-4.56,3.79
			C105.69,549.53,103.87,547.86,103.87,544.99z"/>
		<path d="M114.91,545.74c0-1.72,1.14-2.6,2.34-3.12v-0.04c-0.89-0.47-1.72-1.27-1.72-2.69c0-2.16,1.76-3.41,4.19-3.41
			c2.45,0,4.21,1.25,4.21,3.41c0,1.42-0.85,2.21-1.73,2.69v0.04c1.18,0.53,2.34,1.4,2.34,3.12c0,2.54-2.09,3.79-4.83,3.79
			C117,549.53,114.91,548.28,114.91,545.74z M122.5,545.63c0-1.4-1.04-2.23-2.78-2.23s-2.78,0.83-2.78,2.23
			c0,1.43,1.04,2.27,2.78,2.27S122.5,547.06,122.5,545.63z M121.98,539.96c0-1.25-0.84-1.89-2.25-1.89c-1.4,0-2.23,0.63-2.23,1.89
			c0,1.27,0.83,1.87,2.23,1.87C121.14,541.83,121.98,541.23,121.98,539.96z"/>
	</g>
	<g>
		<path d="M79.82,527.94h2c0,1.72,0.73,2.85,2.92,2.85c1.98,0,2.65-0.8,2.65-2.14c0-1.72-1.23-2.14-2.51-2.14h-1.18v-1.62h1.11
			c1.25,0,2.14-0.56,2.14-1.92c0-0.98-0.6-1.85-2.14-1.85c-2.12,0-2.65,1.12-2.65,2.34h-2c0-2.32,1.58-4.03,4.67-4.03
			c2.23,0,4.16,1.24,4.16,3.45c0,1.34-0.69,2.18-1.89,2.69v0.04c1.65,0.53,2.32,1.62,2.32,3.09c0,2.43-1.8,3.79-4.56,3.79
			C81.64,532.48,79.82,530.81,79.82,527.94z"/>
		<path d="M91.23,529.05h2.03c0.15,1.04,0.76,1.8,2.11,1.8c2.32,0,2.94-2.18,2.94-4.34v-0.18l-0.05-0.02
			c-0.65,1.05-1.82,1.65-3.23,1.65c-2.43,0-4.12-1.71-4.12-4.18c0-2.43,1.69-4.36,4.49-4.36c3.6,0,4.88,2.67,4.88,6.5
			c0,4.12-1.8,6.55-4.92,6.55C93.01,532.48,91.46,530.92,91.23,529.05z M98.09,523.63c0-1.53-0.94-2.58-2.67-2.58
			c-1.63,0-2.52,1.04-2.52,2.61c0,1.65,0.96,2.63,2.42,2.63C97.02,526.3,98.09,525.21,98.09,523.63z"/>
	</g>
	<g>
		<path d="M63.26,510.13v-2.87h-5.97v-1.82l5.97-7.86h1.96v7.99h1.76v1.69h-1.76v2.87H63.26z M59.11,505.57h4.16v-5.47L59.11,505.57
			z"/>
		<path d="M68.31,503.86c0-3.59,1.49-6.54,4.99-6.54c3.5,0,4.98,2.94,4.98,6.54c0,3.6-1.47,6.52-4.98,6.52
			C69.8,510.38,68.31,507.46,68.31,503.86z M76.23,503.86c0-2.58-0.67-4.85-2.92-4.85c-2.27,0-2.94,2.27-2.94,4.85
			s0.67,4.83,2.94,4.83C75.56,508.69,76.23,506.44,76.23,503.86z"/>
	</g>
	<g>
		<path d="M48.96,488.03v-2.87h-5.97v-1.82l5.97-7.86h1.96v7.99h1.76v1.69h-1.76v2.87H48.96z M44.8,483.48h4.16v-5.47L44.8,483.48z"
			/>
		<path d="M55.77,478.72c-0.54,0.51-1.51,0.6-2.63,0.6v-1.6c2.22-0.05,2.87-0.73,3.03-2.23h1.56v12.55h-1.96V478.72z"/>
	</g>
	<g>
		<path d="M32.67,467.82v-2.87H26.7v-1.82l5.97-7.86h1.96v7.99h1.76v1.69h-1.76v2.87H32.67z M28.51,463.26h4.16v-5.47L28.51,463.26z
			"/>
		<path d="M37.36,467.82c0-2.36,1.43-4,3.83-5.48c2.12-1.29,3.2-1.82,3.2-3.49c0-1.04-0.42-2.14-2.12-2.14c-1.96,0-2.58,1.27-2.58,3
			h-2c0-2.67,1.45-4.69,4.63-4.69c2.27,0,4.1,1.36,4.1,3.76c0,2.43-1.98,3.69-3.78,4.79c-1.23,0.73-2.4,1.42-2.76,2.52v0.04h6.39
			v1.69H37.36z"/>
	</g>
	<g>
		<path d="M24.58,444.84v-2.87h-5.97v-1.82l5.97-7.86h1.96v7.99h1.76v1.69h-1.76v2.87H24.58z M20.42,440.28h4.16v-5.47L20.42,440.28
			z"/>
		<path d="M29.43,440.55h2c0,1.72,0.73,2.85,2.92,2.85c1.98,0,2.65-0.8,2.65-2.14c0-1.72-1.23-2.14-2.51-2.14h-1.18v-1.62h1.11
			c1.25,0,2.14-0.56,2.14-1.92c0-0.98-0.6-1.85-2.14-1.85c-2.12,0-2.65,1.12-2.65,2.34h-2c0-2.32,1.58-4.03,4.67-4.03
			c2.23,0,4.16,1.24,4.16,3.45c0,1.34-0.69,2.18-1.89,2.69v0.04c1.65,0.53,2.32,1.62,2.32,3.09c0,2.43-1.8,3.79-4.56,3.79
			C31.25,445.09,29.43,443.42,29.43,440.55z"/>
	</g>
	<g>
		<path d="M18.09,419.57v-2.87h-5.97v-1.82l5.97-7.86h1.96v7.99h1.76v1.69h-1.76v2.87H18.09z M13.93,415.01h4.16v-5.47L13.93,415.01
			z"/>
		<path d="M28.8,419.57v-2.87h-5.97v-1.82l5.97-7.86h1.96v7.99h1.76v1.69h-1.76v2.87H28.8z M24.64,415.01h4.16v-5.47L24.64,415.01z"
			/>
	</g>
</g>
</svg>
