<?xml version="1.0" encoding="UTF-8"?>
<svg id="Layer_1" xmlns="http://www.w3.org/2000/svg" width="350" height="350" version="1.1" viewBox="0 0 350 350">
  <!-- Generator: Adobe Illustrator 29.4.0, SVG Export Plug-In . SVG Version: 2.1.0 Build 152)  -->
  <path d="M174.239,209.906c-.282.484-.757.784-1.418.81v-1.048c.802-.115,1.366-.511,1.524-1.198h.96v5.154h1.709v1.013h-4.59v-1.013h1.779v-3.286c0-.15.009-.291.035-.432Z" fill="#1e1e21"/>
  <path d="M174.318,194.044l.361-.256c.67-.476,1.137-.898,1.137-1.506,0-.581-.37-.925-.978-.925-.749,0-1.128.511-1.128,1.322v.062h-1.181v-.053c0-1.366.864-2.273,2.308-2.273,1.33,0,2.097.811,2.097,1.876,0,1.137-.81,1.78-1.7,2.405l-.414.291c-.599.432-.766.555-.846.723h2.96v1.031h-4.484c.035-1.383.837-1.965,1.867-2.696Z" fill="#1e1e21"/>
  <path d="M172.46,176.613h1.119c0,.731.414,1.207,1.181,1.207.661,0,1.119-.406,1.119-1.013,0-.855-.766-1.075-1.762-1.013v-.864l1.348-1.436h-2.652v-1.057h3.938v1.119l-1.375,1.472c1.163.202,1.63.933,1.63,1.735,0,1.163-.934,1.999-2.247,1.999-1.454,0-2.291-.793-2.299-2.15Z" fill="#1e1e21"/>
  <path d="M175.098,159.21h-2.907v-.951l2.59-3.718h1.427v3.727h1.128v.943h-1.128v1.498h-1.11v-1.498ZM175.098,158.267v-2.652c-.088.176-.167.299-.255.423l-1.322,1.876c-.097.132-.203.282-.273.353h1.85Z" fill="#1e1e21"/>
  <path d="M172.561,140.88h1.119c.026.546.431.987,1.11.987s1.207-.467,1.207-1.251c0-.634-.387-1.198-1.136-1.198-.52,0-.916.247-1.092.643h-1.119l.485-3.577h3.638v1.057h-2.82l-.194,1.33c-.018.141-.044.247-.088.37.3-.396.766-.757,1.48-.757,1.172,0,1.956.925,1.956,2.132,0,1.41-1.013,2.193-2.282,2.193-1.409,0-2.255-.837-2.264-1.929Z" fill="#1e1e21"/>
  <path d="M172.517,122.693c0-.881.299-1.392.661-1.974l1.383-2.211h1.304l-1.471,2.229c.185-.08.405-.106.625-.106,1.11,0,2,.819,2,2.097,0,1.224-.934,2.105-2.255,2.105-1.331,0-2.247-.907-2.247-2.141ZM175.908,122.746c0-.67-.458-1.181-1.11-1.181-.679,0-1.154.502-1.154,1.154,0,.696.449,1.154,1.119,1.154.652,0,1.145-.449,1.145-1.128Z" fill="#1e1e21"/>
  <path d="M175.997,101.668h-3.506v-1.057h4.511v1.119c-1.145,1.013-2.061,2.555-2.185,5.048h-1.339c.089-1.982,1.075-4.308,2.52-5.11Z" fill="#1e1e21"/>
  <path d="M172.407,87.216c0-.775.511-1.348,1.304-1.612-.652-.212-1.136-.634-1.136-1.348,0-1.057.819-1.78,2.167-1.78,1.322,0,2.167.731,2.167,1.736,0,.714-.449,1.215-1.154,1.392.793.238,1.321.793,1.321,1.542,0,1.075-.889,1.815-2.334,1.815-1.533,0-2.334-.748-2.334-1.744ZM175.966,87.03c0-.555-.52-.978-1.224-.978-.696,0-1.224.405-1.224.96,0,.572.511,1.004,1.224,1.004.705,0,1.224-.423,1.224-.987ZM175.816,84.308c0-.555-.432-.89-1.075-.89-.652,0-1.075.335-1.075.846,0,.546.432.907,1.075.907.617,0,1.075-.343,1.075-.863Z" fill="#1e1e21"/>
  <path d="M174.49,68.737c-1.101,0-1.991-.811-1.991-2.044,0-1.215.925-2.114,2.229-2.114,1.33,0,2.211.864,2.211,2.185,0,.855-.299,1.445-.625,1.974l-1.339,2.167h-1.304l1.48-2.291c-.194.088-.414.123-.661.123ZM175.812,66.693c0-.678-.423-1.154-1.083-1.154-.652,0-1.119.467-1.119,1.137,0,.643.432,1.128,1.075,1.128.679,0,1.128-.485,1.128-1.11Z" fill="#1e1e21"/>
  <g>
    <path d="M171.927,48.117c-.282.484-.757.784-1.418.81v-1.048c.802-.115,1.366-.511,1.524-1.198h.96v5.154h1.709v1.013h-4.59v-1.013h1.779v-3.286c0-.15.009-.291.035-.432Z" fill="#1e1e21"/>
    <path d="M174.851,49.747c0-2.018.943-3.225,2.432-3.225,1.48,0,2.423,1.198,2.423,3.277,0,1.991-.89,3.207-2.423,3.207-1.55,0-2.432-1.215-2.432-3.259ZM178.586,49.818c0-1.621-.511-2.353-1.295-2.353-.811,0-1.313.731-1.313,2.37,0,1.507.529,2.229,1.313,2.229s1.295-.732,1.295-2.246Z" fill="#1e1e21"/>
  </g>
  <g>
    <path d="M172.077,30.141c-.282.484-.757.784-1.418.81v-1.048c.802-.115,1.366-.511,1.524-1.198h.96v5.154h1.709v1.013h-4.59v-1.013h1.779v-3.286c0-.15.009-.291.035-.432Z" fill="#1e1e21"/>
    <path d="M177.009,30.141c-.282.484-.758.784-1.418.81v-1.048c.802-.115,1.365-.511,1.524-1.198h.96v5.154h1.709v1.013h-4.59v-1.013h1.78v-3.286c0-.15.009-.291.035-.432Z" fill="#1e1e21"/>
  </g>
  <g>
    <path d="M171.919,12.244c-.282.484-.758.784-1.418.81v-1.048c.802-.115,1.366-.511,1.524-1.198h.96v5.154h1.709v1.013h-4.59v-1.013h1.78v-3.286c0-.15.009-.291.035-.432Z" fill="#1e1e21"/>
    <path d="M176.842,14.279l.361-.255c.67-.476,1.136-.899,1.136-1.507,0-.581-.37-.925-.978-.925-.749,0-1.128.511-1.128,1.321v.062h-1.18v-.053c0-1.366.863-2.273,2.308-2.273,1.331,0,2.097.811,2.097,1.877,0,1.136-.811,1.779-1.701,2.405l-.414.291c-.599.432-.766.555-.846.723h2.96v1.03h-4.484c.035-1.383.837-1.965,1.868-2.696Z" fill="#1e1e21"/>
  </g>
</svg>